<?xml version="1.0" encoding="UTF-8" standalone="no"?>
<!-- Created with Inkscape (http://www.inkscape.org/) -->

<svg
   xmlns:dc="http://purl.org/dc/elements/1.1/"
   xmlns:cc="http://creativecommons.org/ns#"
   xmlns:rdf="http://www.w3.org/1999/02/22-rdf-syntax-ns#"
   xmlns:svg="http://www.w3.org/2000/svg"
   xmlns="http://www.w3.org/2000/svg"
   xmlns:sodipodi="http://sodipodi.sourceforge.net/DTD/sodipodi-0.dtd"
   xmlns:inkscape="http://www.inkscape.org/namespaces/inkscape"
   width="13.74182mm"
   height="12.869003mm"
   viewBox="0 0 13.74182 12.869003"
   version="1.1"
   id="svg8"
   inkscape:version="0.92.3 (2405546, 2018-03-11)"
   sodipodi:docname="icon.svg">
  <defs
     id="defs2" />
  <sodipodi:namedview
     id="base"
     pagecolor="#ffffff"
     bordercolor="#666666"
     borderopacity="1.0"
     inkscape:pageopacity="0.0"
     inkscape:pageshadow="2"
     inkscape:zoom="11.2"
     inkscape:cx="51.827752"
     inkscape:cy="13.570273"
     inkscape:document-units="mm"
     inkscape:current-layer="layer1"
     showgrid="false"
     fit-margin-top="0"
     fit-margin-left="0"
     fit-margin-right="0"
     fit-margin-bottom="0"
     inkscape:window-width="3009"
     inkscape:window-height="2049"
     inkscape:window-x="831"
     inkscape:window-y="55"
     inkscape:window-maximized="0" />
  <metadata
     id="metadata5">
    <rdf:RDF>
      <cc:Work
         rdf:about="">
        <dc:format>image/svg+xml</dc:format>
        <dc:type
           rdf:resource="http://purl.org/dc/dcmitype/StillImage" />
        <dc:title></dc:title>
      </cc:Work>
    </rdf:RDF>
  </metadata>
  <g
     inkscape:label="Ebene 1"
     inkscape:groupmode="layer"
     id="layer1"
     transform="translate(-79.886182,-123.73907)">
    <path
       style="fill:#009c00;fill-opacity:1;stroke:none;stroke-width:0.26458332px;stroke-linecap:butt;stroke-linejoin:miter;stroke-opacity:1"
       d="m 82.398808,134.96633 c -2.424634,0.10109 -3.274883,-2.427 -1.74814,-4.55934 -1.911127,-2.63781 1.291852,-5.67598 3.449033,-5.17355 1.833495,-1.91982 3.655271,-2.03094 5.480654,-0.0945 1.990041,-0.72496 4.636071,2.84126 3.000188,4.65383 2.270583,1.6873 0.419658,5.19187 -1.488281,5.19717 l -4.134114,-4.79557 z"
       id="path819"
       inkscape:connector-curvature="0"
       sodipodi:nodetypes="cccccccc" />
    <g
       aria-label="木"
       style="font-style:normal;font-weight:normal;font-size:10.58333302px;line-height:1.25;font-family:sans-serif;letter-spacing:0px;word-spacing:0px;fill:#000000;fill-opacity:1;stroke:none;stroke-width:0.26458332"
       id="text817">
      <path
         d="m 91.306956,130.31099 v -0.77259 h -4.15925 v -2.59291 h -0.814917 v 2.59291 h -4.138083 v 0.77259 h 3.767667 c -0.931334,1.83091 -2.550584,3.63008 -4.169834,4.5085 0.179917,0.15875 0.4445,0.45508 0.592667,0.66675 1.49225,-0.91017 2.942167,-2.54 3.947583,-4.33917 v 5.461 h 0.814917 v -5.47158 c 1.026583,1.75683 2.487083,3.40783 3.926416,4.318 0.137584,-0.22225 0.41275,-0.51859 0.60325,-0.67734 -1.5875,-0.87841 -3.2385,-2.67758 -4.191,-4.46616 z"
         style="stroke-width:0.26458332"
         id="path821" />
    </g>
  </g>
</svg>
