<?xml version="1.0" standalone="no"?>
<!DOCTYPE svg PUBLIC "-//W3C//DTD SVG 20010904//EN"
 "http://www.w3.org/TR/2001/REC-SVG-20010904/DTD/svg10.dtd">
<svg version="1.0" xmlns="http://www.w3.org/2000/svg"
 width="784.000000pt" height="784.000000pt" viewBox="0 0 784.000000 784.000000"
 preserveAspectRatio="xMidYMid meet">
<metadata>
Created by potrace 1.11, written by Peter Selinger 2001-2013
</metadata>
<g transform="translate(0.000000,784.000000) scale(0.100000,-0.100000)"
fill="#000000" stroke="none">
<path d="M3858 7585 c-1 -1 -21 -5 -43 -9 -22 -3 -52 -8 -67 -11 -16 -3 -38
-7 -50 -9 -78 -13 -305 -88 -356 -117 -18 -11 -37 -19 -41 -19 -37 0 -461
-269 -461 -292 0 -4 -6 -8 -12 -8 -7 0 -31 -17 -53 -38 -23 -20 -56 -49 -75
-63 -19 -15 -93 -83 -165 -153 l-130 -127 -45 6 c-25 4 -63 9 -85 12 -55 9
-236 9 -318 0 -87 -9 -241 -43 -315 -68 -31 -11 -64 -22 -73 -24 -8 -2 -33
-11 -55 -20 -51 -22 -77 -32 -86 -34 -4 -1 -47 -22 -95 -48 -49 -25 -98 -51
-110 -57 -13 -6 -23 -14 -23 -18 0 -5 -5 -8 -12 -8 -27 0 -260 -169 -371 -270
-154 -139 -244 -241 -359 -404 -32 -44 -62 -86 -67 -92 -6 -7 -8 -14 -5 -17 2
-2 -2 -10 -11 -17 -8 -7 -15 -18 -15 -25 0 -8 -4 -15 -8 -17 -26 -10 -180
-377 -197 -471 -3 -12 -9 -45 -15 -73 -19 -88 -21 -107 -29 -204 -8 -91 -6
-238 3 -310 14 -97 32 -187 52 -251 8 -25 16 -54 19 -65 17 -82 179 -397 232
-452 7 -7 13 -18 13 -24 0 -10 -30 -68 -40 -78 -17 -17 -123 -192 -139 -230
-6 -14 -15 -32 -20 -40 -18 -28 -69 -145 -96 -220 -15 -41 -31 -84 -36 -95
-11 -28 -45 -158 -58 -225 -6 -30 -14 -66 -17 -80 -19 -88 -26 -390 -12 -495
11 -81 19 -129 24 -145 3 -8 5 -16 5 -17 0 -9 40 -136 54 -173 46 -123 133
-276 187 -332 10 -10 18 -22 18 -27 0 -14 177 -179 223 -208 23 -14 44 -29 47
-32 10 -11 166 -95 195 -104 11 -3 52 -17 90 -31 74 -27 190 -55 264 -63 47
-6 55 -12 151 -120 57 -64 90 -104 114 -137 10 -14 24 -33 30 -41 10 -13 28
-4 131 64 126 84 232 158 256 178 8 7 50 40 94 75 43 34 91 71 105 84 14 12
48 41 75 64 163 137 378 349 600 591 32 35 171 197 219 257 6 7 16 18 22 25
46 52 308 404 374 502 37 56 97 146 138 210 24 39 53 82 63 97 11 15 19 31 19
36 0 5 11 22 25 38 14 16 25 35 25 42 0 6 5 12 12 12 6 0 8 3 5 7 -4 3 -1 13
6 22 8 9 25 36 38 61 13 25 27 47 30 50 3 3 8 13 12 23 3 9 12 17 18 17 7 0 8
-5 3 -12 -11 -15 -11 -389 0 -406 4 -7 4 -12 -1 -12 -4 0 -8 -123 -8 -274 0
-151 3 -272 7 -269 5 2 4 -6 0 -19 -9 -27 -8 -418 1 -442 4 -9 3 -16 -1 -16
-4 0 -7 -182 -7 -404 0 -238 4 -402 9 -398 5 3 6 -1 1 -8 -10 -17 -13 -480 -3
-473 5 2 5 -6 0 -19 -6 -18 -8 -275 -3 -345 1 -19 457 -19 463 0 2 6 3 706 2
1554 0 849 2 1543 5 1543 3 0 33 -47 66 -105 33 -58 63 -105 68 -105 4 0 7 -7
7 -15 0 -8 5 -15 10 -15 6 0 10 -5 10 -11 0 -22 223 -347 423 -614 139 -187
334 -417 535 -634 159 -172 423 -425 563 -541 23 -19 47 -40 53 -45 6 -6 40
-33 74 -60 35 -28 82 -65 104 -83 23 -18 50 -38 62 -44 12 -6 23 -14 26 -18 3
-4 55 -41 115 -82 106 -72 135 -83 135 -52 0 8 5 14 10 14 6 0 14 8 17 17 8
21 20 36 116 145 69 78 111 114 127 110 10 -2 54 11 79 24 14 8 34 14 43 14 9
0 20 4 23 10 3 5 27 19 53 30 53 24 219 133 272 180 166 146 297 302 404 480
61 101 141 261 152 304 3 14 11 26 17 26 6 0 8 3 4 6 -3 3 3 29 15 58 11 28
22 60 24 71 2 11 12 50 23 88 11 37 17 67 14 67 -3 0 -1 6 4 13 6 6 10 19 10
27 0 8 3 32 7 52 17 105 21 155 21 288 -1 149 -8 241 -24 298 -6 18 -10 35
-10 37 -1 3 -1 6 -2 8 0 1 -2 13 -5 27 -6 34 -42 146 -62 195 -27 65 -104 210
-113 213 -5 2 -9 10 -9 18 0 8 -4 14 -9 14 -5 0 -12 8 -15 18 -4 10 -14 27
-24 38 -9 10 -37 44 -62 74 -49 59 -132 140 -195 190 -51 40 -62 60 -43 74 8
6 17 19 21 29 3 9 10 17 15 17 5 0 15 14 22 30 7 17 16 30 21 30 5 0 9 6 9 14
0 8 3 16 8 18 15 6 84 151 113 236 16 48 29 88 28 90 0 1 2 15 5 30 26 127 33
263 22 407 -4 58 -20 160 -25 168 -1 1 -4 18 -7 37 -2 19 -8 46 -13 60 -5 14
-19 59 -32 100 -35 121 -87 240 -188 429 -38 72 -181 272 -261 366 -47 56
-215 220 -265 260 -27 22 -59 48 -69 58 -11 9 -23 17 -27 17 -4 0 -14 7 -22
15 -35 34 -303 185 -330 185 -2 0 -22 8 -43 17 -38 16 -44 18 -81 27 -10 3
-19 5 -20 6 -2 2 -6 3 -10 4 -5 1 -30 7 -58 14 -160 37 -368 32 -493 -12 -23
-9 -45 -14 -48 -13 -3 1 -54 49 -113 107 -174 170 -299 272 -468 383 -92 61
-309 177 -330 177 -4 0 -20 6 -35 14 -14 8 -43 19 -65 26 -21 6 -45 14 -53 17
-22 9 -177 46 -240 58 -36 7 -365 16 -372 10z"/>
</g>
</svg>
